<svg xmlns="http://www.w3.org/2000/svg" width="712" height="271" viewBox="0 0 712 271"><defs><style>.cls-1{fill:#ff5115;fill-rule:evenodd}</style></defs><path class="cls-1" d="M323.347 70.482a19.542 19.542 0 1 0-5.713-27.01 19.633 19.633 0 0 0 5.713 27.01zm36.016 50.612L357.14 94.78c-.008-8.37-8.14-15.18-18.16-15.17l-9.078.015c-10.02 0-18.137 6.817-18.126 15.195l1.8 26.283zm24.817 41.794s-61.15-.136-64.675-.113c-6.1.037-6.946-4.28-6.946-4.28l-2.017-13.93 51.546.3a9.31 9.31 0 1 0 0-18.62l-54.248-.3-6.908-41.2a.125.125 0 0 0-.005-.042 12.527 12.527 0 0 0 7.9-13.178l-3.7-28.962a12.77 12.77 0 0 0-14.306-10.917l-10.678 2.182c-7.11 1.046-9 7.482-8.777 14.538l.972 34.825 19.548 101.95c.87 6.34 4.8 10.528 10.717 10.528h4.966l-7.763 24.646-.148.59a15 15 0 0 0 3.467 12.337 16.83 16.83 0 0 0 12.7 6.178h51.952a17.036 17.036 0 0 0 13.186-6.937 15.213 15.213 0 0 0 2.78-13.338l-5.648-23.475h3.788c5.918 0 9.082-4.946 10.718-10.528l4.1-12.578c1.25-5.857-.03-9.977-12.526-9.674zM372.705 226.3a6.735 6.735 0 0 1-4.92 2.825h-51.953a6.485 6.485 0 0 1-4.748-2.456 4.95 4.95 0 0 1-1.3-3.624l8.622-27.374h49.21l6.145 26.11a5.208 5.208 0 0 1-1.055 4.518zm68.6-10.81s-15.027-34.424-24.266-60.236c-3.52-9.826-8.242-15.943-14.724-16.1l-24.04-.184S376.115 149.6 364 150.057l-42.258.15a3.472 3.472 0 1 0 0 6.944h70.974a10.882 10.882 0 0 1 5.06 1.36c10.148 6.04 3.193 18.724 3.193 18.724l18.75 40.944c3.18 8 7.043 14.57 15.51 12.984 8.644-1.62 7.735-9.79 6.07-15.678z"/></svg>